<svg width="70" height="44" viewBox="0 0 70 44" fill="none" xmlns="http://www.w3.org/2000/svg">

<path d="M22 44C34.1503 44 44 34.1503 44 22C44 9.84974 34.1503 0 22 0C9.84974 0 0 9.84974 0 22C0 34.1503 9.84974 44 22 44Z" fill="url(#paint0_linear_3245_3919)"/>
<path d="M34.17 25.26L40 22L34.17 18.74L37.59 13L30.91 13.09L31 6.41L25.26 9.83L22 4L18.74 9.83L13 6.41L13.09 13.09L6.41 13L9.83 18.74L4 22L9.83 25.26L6.41 31L13.09 30.91L13 37.59L18.74 34.17L22 40L25.26 34.17L31 37.59L30.91 30.91L37.59 31L34.17 25.26ZM29.82 35.54L24.82 32.54L22 37.64L19.17 32.58L14.17 35.58L14.25 29.78L8.45 29.86L11.45 24.86L6.36 22L11.43 19.17L8.43 14.17L14.23 14.25L14.15 8.45L19.15 11.45L22 6.36L24.83 11.42L29.83 8.42L29.75 14.22L35.55 14.14L32.55 19.14L37.64 22L32.58 24.83L35.58 29.83L29.78 29.75L29.82 35.54ZM31 20.29C30.6657 20.1808 30.3589 20.0006 30.1007 19.7618C29.8426 19.5229 29.6391 19.2311 29.5042 18.9063C29.3693 18.5814 29.3063 18.2313 29.3194 17.8798C29.3324 17.5284 29.4214 17.1839 29.58 16.87C29.7947 16.5451 29.9238 16.1713 29.9552 15.7831C29.9867 15.395 29.9195 15.0052 29.76 14.65C29.33 13.97 28.38 13.88 27.16 14.46C26.8109 14.6295 26.4281 14.7183 26.04 14.72C25.5189 14.7197 25.0115 14.5526 24.5922 14.2431C24.1729 13.9336 23.8638 13.4979 23.71 13C23.2 11.57 22.5 11.27 22 11.27C21.5 11.27 20.8 11.57 20.29 13C20.1366 13.4896 19.8327 13.9184 19.4216 14.2254C19.0104 14.5324 18.513 14.7019 18 14.71C17.6119 14.7087 17.229 14.6198 16.88 14.45C15.66 13.87 14.71 13.97 14.28 14.64C14.1205 14.9952 14.0533 15.385 14.0848 15.7731C14.1162 16.1613 14.2453 16.5351 14.46 16.86C14.6198 17.1769 14.7085 17.5249 14.7199 17.8796C14.7313 18.2344 14.6652 18.5874 14.5262 18.9139C14.3872 19.2405 14.1786 19.5328 13.915 19.7705C13.6514 20.0081 13.3392 20.1854 13 20.29C11.57 20.8 11.27 21.5 11.27 22C11.27 22.5 11.57 23.2 13 23.71C13.3343 23.8192 13.6411 23.9994 13.8993 24.2382C14.1574 24.4771 14.3609 24.7689 14.4958 25.0937C14.6307 25.4186 14.6937 25.7687 14.6806 26.1202C14.6676 26.4716 14.5786 26.8161 14.42 27.13C14.2053 27.4549 14.0762 27.8287 14.0448 28.2169C14.0133 28.605 14.0805 28.9948 14.24 29.35C14.67 30.03 15.62 30.12 16.84 29.54C17.2022 29.3684 17.5992 29.2828 18 29.29C18.513 29.2981 19.0104 29.4676 19.4216 29.7746C19.8327 30.0816 20.1366 30.5104 20.29 31C20.8 32.43 21.5 32.73 22 32.73C22.5 32.73 23.2 32.43 23.71 31C23.8634 30.5104 24.1673 30.0816 24.5784 29.7746C24.9895 29.4676 25.487 29.2981 26 29.29C26.3881 29.292 26.7707 29.3808 27.12 29.55C28.34 30.13 29.29 30.03 29.72 29.36C29.8795 29.0048 29.9467 28.615 29.9152 28.2269C29.8838 27.8387 29.7547 27.4649 29.54 27.14C29.3802 26.8231 29.2916 26.4751 29.2801 26.1204C29.2687 25.7656 29.3348 25.4126 29.4738 25.0861C29.6128 24.7595 29.8214 24.4672 30.085 24.2295C30.3486 23.9919 30.6608 23.8146 31 23.71C32.43 23.2 32.73 22.5 32.73 22C32.73 21.5 32.39 20.8 31 20.29ZM30.6 22.58C30.1083 22.7456 29.6579 23.0146 29.279 23.369C28.9001 23.7234 28.6015 24.1549 28.4035 24.6344C28.2054 25.1139 28.1124 25.6303 28.1308 26.1487C28.1492 26.6672 28.2785 27.1757 28.51 27.64C28.85 28.35 28.79 28.64 28.76 28.71C28.7108 28.7223 28.6592 28.7223 28.61 28.71C28.2874 28.6875 27.9736 28.5953 27.69 28.44C27.1612 28.1946 26.5828 28.0748 26 28.09C25.2433 28.0926 24.5065 28.3323 23.893 28.7753C23.2796 29.2184 22.8204 29.8425 22.58 30.56C22.32 31.29 22.05 31.48 22 31.49C21.95 31.5 21.68 31.29 21.42 30.56C21.1796 29.8425 20.7204 29.2184 20.107 28.7753C19.4935 28.3323 18.7567 28.0926 18 28.09C17.4351 28.0933 16.8781 28.2231 16.37 28.47C16.0864 28.6253 15.7726 28.7175 15.45 28.74C15.4007 28.7515 15.3493 28.7515 15.3 28.74C15.3 28.74 15.21 28.38 15.55 27.67C15.7815 27.2057 15.9108 26.6972 15.9292 26.1787C15.9476 25.6603 15.8546 25.1439 15.6565 24.6644C15.4585 24.1849 15.1599 23.7534 14.781 23.399C14.4021 23.0446 13.9517 22.7756 13.46 22.61C12.72 22.35 12.53 22.08 12.53 22.03C12.53 21.98 12.72 21.71 13.46 21.45C13.9517 21.2844 14.4021 21.0154 14.781 20.661C15.1599 20.3066 15.4585 19.8751 15.6565 19.3956C15.8546 18.9161 15.9476 18.3997 15.9292 17.8813C15.9108 17.3628 15.7815 16.8543 15.55 16.39C15.21 15.68 15.27 15.39 15.3 15.32C15.3493 15.3081 15.4007 15.3081 15.45 15.32C15.7724 15.3432 16.0862 15.4352 16.37 15.59C16.8781 15.8369 17.4351 15.9667 18 15.97C18.7567 15.9674 19.4935 15.7277 20.107 15.2847C20.7204 14.8416 21.1796 14.2175 21.42 13.5C21.68 12.76 21.95 12.57 22 12.57C22.05 12.57 22.32 12.76 22.58 13.5C22.8305 14.2063 23.294 14.8174 23.9066 15.2491C24.5192 15.6808 25.2506 15.9117 26 15.91C26.5642 15.9102 27.1212 15.7837 27.63 15.54C27.9137 15.3849 28.2275 15.2929 28.55 15.27C28.5993 15.2581 28.6507 15.2581 28.7 15.27C28.7 15.27 28.79 15.63 28.45 16.34C28.2185 16.8043 28.0892 17.3128 28.0708 17.8313C28.0524 18.3497 28.1454 18.8661 28.3435 19.3456C28.5415 19.8251 28.8401 20.2566 29.219 20.611C29.5979 20.9654 30.0483 21.2344 30.54 21.4C31.28 21.66 31.47 21.93 31.47 21.98C31.47 22.03 31.3 22.32 30.56 22.58H30.6ZM22 16.41C20.8944 16.41 19.8136 16.7378 18.8944 17.3521C17.9751 17.9663 17.2586 18.8394 16.8355 19.8608C16.4124 20.8822 16.3017 22.0062 16.5174 23.0906C16.7331 24.1749 17.2655 25.1709 18.0473 25.9527C18.829 26.7345 19.8251 27.2669 20.9094 27.4826C21.9938 27.6983 23.1178 27.5876 24.1392 27.1645C25.1606 26.7414 26.0337 26.0249 26.6479 25.1056C27.2622 24.1864 27.59 23.1056 27.59 22C27.5874 20.5183 26.9976 19.0979 25.9498 18.0502C24.9021 17.0024 23.4817 16.4126 22 16.41ZM22 26.41C21.1206 26.41 20.261 26.1488 19.5302 25.6596C18.7994 25.1704 18.2303 24.4752 17.8952 23.6621C17.56 22.8491 17.4739 21.9548 17.6476 21.0927C17.8214 20.2306 18.2473 19.4396 18.8712 18.8198C19.4952 18.2001 20.2891 17.7796 21.1523 17.6117C22.0156 17.4438 22.9092 17.536 23.72 17.8766C24.5308 18.2173 25.2221 18.7911 25.7064 19.5251C26.1906 20.2592 26.4459 21.1206 26.44 22C26.4374 23.1768 25.9687 24.3045 25.1366 25.1366C24.3045 25.9687 23.1768 26.4374 22 26.44V26.41Z" fill="white"/>
<defs>
<linearGradient id="paint0_linear_3245_3919" x1="21.96" y1="0.13" x2="22.04" y2="44.13" gradientUnits="userSpaceOnUse">
<stop stop-color="#F39440"/>
<stop offset="1" stop-color="#E7680B"/>
</linearGradient>
</defs>
</svg>
