<?xml version="1.0" encoding="UTF-8" standalone="no"?>
<!-- Created by Vectric (http://www.vectric.com/) -->

<svg
   width="58.325958mm"
   height="44.402985mm"
   viewBox="0 0 58.325958 44.402986"
   id="svg2"
   version="1.1"
   sodipodi:docname="иконка лошадь2.svg"
   xml:space="preserve"
   xmlns:inkscape="http://www.inkscape.org/namespaces/inkscape"
   xmlns:sodipodi="http://sodipodi.sourceforge.net/DTD/sodipodi-0.dtd"
   xmlns="http://www.w3.org/2000/svg"
   xmlns:svg="http://www.w3.org/2000/svg"><defs
     id="defs1892" /><sodipodi:namedview
     id="namedview1890"
     pagecolor="#ffffff"
     bordercolor="#000000"
     borderopacity="0.25"
     inkscape:showpageshadow="2"
     inkscape:pageopacity="0.0"
     inkscape:pagecheckerboard="0"
     inkscape:deskcolor="#d1d1d1"
     inkscape:document-units="mm"
     showgrid="false" /><g
     inkscape:groupmode="layer"
     id="b0bbe944-b79a-49e9-9278-40624fabc305"
     inkscape:label="g72"
     style="stroke:#000000"><g
       id="g12406"
       transform="translate(-27.589984,11.23574)"><path
         style="fill:none;stroke:#000000;stroke-width:0.28;stroke-linecap:round;stroke-linejoin:round;stroke-opacity:1"
         d="m 33.504455,23.544259 4.515558,2.464272 2.938342,1.589937 -0.08327,0.434538 -0.358338,0.903435 -0.928799,1.806705 -0.23257,0.199223 -0.300206,-0.05372 -0.42619,-0.338137 -0.610524,-0.654033 -0.817845,-0.800665 -0.723876,-0.481859 -0.291439,-0.104579 -0.225632,-0.0047 -0.145723,0.101857 -0.01913,0.07962 0.06924,0.27895 0.390845,0.550524 1.184491,1.250013 0.516097,0.554343 h 2.338278 l 0.119934,-0.358114 0.431,-0.937797 0.541768,-1.002535 0.417186,-0.556099 0.390254,-0.20125 0.460972,0.06201 1.605394,0.366476 1.594689,0.118124 1.525365,-0.130003 1.39742,-0.377908 0.855342,-0.300145 0.580498,-0.134271 0.350111,0.02645 0.16418,0.182026 0.163775,0.376695 0.223449,0.323532 0.284893,0.271273 0.348107,0.219921 0.892936,0.289406 1.167029,0.09486 0.957327,-0.03626 0.644148,-0.14314 0.458823,-0.301571 0.40135,-0.511551 0.278217,-0.526947 0.167815,-0.569092 0.05982,-0.623817 -0.04578,-0.69112 -0.199951,-0.803426 -0.406015,-1.151737 -1.217377,-2.881079 -1.403087,-2.872339 -0.638153,-1.140813 -0.524943,-0.788131 -0.382734,-0.575929 -0.199092,-0.595704 -0.041,-0.759728 0.09154,-1.068002 0.06721,-1.340962 -0.07169,-0.405985 -0.147105,-0.233822 -0.226431,-0.06479 -0.30967,0.10112 -0.884699,0.687452 -0.452267,0.371165 -0.401286,0.175064 -0.433548,-0.004 -0.549054,-0.165955 -1.164252,-0.297522 -1.194773,-0.07244 -1.030916,0.146205 -0.393268,0.15308 -0.279411,0.205325 -0.289462,0.249991 -0.302,0.0793 -0.396406,-0.093 -0.57268,-0.26691 -0.520717,-0.219105 -0.508848,-0.121662 -0.483666,-0.02761 -0.44517,0.06306 -0.393361,0.150341 a 1.440296,1.440296 0 0 0 -0.736096,0.940818 l -0.155749,0.476454 -0.23007,0.21755 -0.413896,-0.0053 -0.707231,-0.191955 -0.682629,-0.174089 -0.5026,-0.01882 -0.419976,0.150334 -0.434757,0.333372 -0.534323,0.632232 -0.222242,0.558575 -0.09195,0.221598 -0.276064,0.158145 -0.460508,0.0948 -0.645279,0.03158 -0.747653,0.04505 -0.566094,0.155556 -0.453521,0.296654 -0.409931,0.468347 -0.703397,0.96561 -0.522013,-0.197822 v 2.6546 l 0.303186,-0.152017 0.303901,0.08118 0.09495,0.142181 0.03526,0.213006 a 0.597324,0.597324 0 0 1 -0.364463,0.54879 l -0.231339,0.04701 -0.141493,-0.02272 v 1.37023 l 0.06774,-0.01213 0.634106,0.02617 0.720217,0.146645 0.774851,0.268936 0.79801,0.393041"
         id="path1860" /><path
         style="fill:none;stroke:#000000;stroke-width:0.28;stroke-linecap:round;stroke-linejoin:round;stroke-opacity:1"
         d="m 51.123445,13.787555 -0.161315,0.594273 -0.134686,0.24077 -0.182103,0.177974 -0.169173,0.06433 -0.01245,0.0087 -0.02976,0.0073 -0.214476,0.08155 a 8.242479,8.242479 0 0 0 -0.303089,-0.08607 l -0.07064,-0.02006 -0.116941,-0.157105 -0.04346,-0.228339 0.05938,-0.25026 A 1.477447,1.477447 0 0 1 50.095429,13.689497 1.643706,1.643706 0 0 1 50.62672,13.1436 l 0.01995,-0.01329 0.410117,-0.301424 0.107114,0.08271 0.02664,0.283021 -0.06709,0.592938"
         id="path1862" /><path
         style="fill:none;stroke:#000000;stroke-width:0.28;stroke-linecap:round;stroke-linejoin:round;stroke-opacity:1"
         d="m 40.122064,16.874765 -2.093674,1.292331 -2.045284,1.234286 -0.815779,0.397037 -0.707124,0.2588 -0.620408,0.126938 -0.555631,0.0015 -0.512796,-0.117661 -0.491899,-0.230399 -0.295162,-0.233088 -0.163357,-0.293293 -0.03955,-0.38002 0.07628,-0.493266 0.286687,-0.893567 0.187058,-0.30498 0.237353,-0.225399 0.303509,-0.157034 0.385529,-0.09989 1.080571,-0.07319 0.829409,-0.0395 0.509898,-0.136618 0.291293,-0.287105 0.173594,-0.490958 0.194751,-0.554552 0.158823,-0.163363 0.241264,-0.09673 0.854285,-0.02151 1.557346,0.161212 0.463601,0.01371 0.30857,-0.105336 0.188484,-0.24932 0.103346,-0.418239 0.08891,-0.383994 0.146636,-0.303063 0.204735,-0.22226 0.263201,-0.141584 0.322036,-0.06104 0.381239,0.01938 0.941561,0.279518 0.571969,0.196747 0.497512,0.07758 0.45497,-0.04034 0.444347,-0.15701 0.998897,-0.431975 0.774623,-0.206441 0.672484,0.0018 0.692481,0.19282 0.535083,0.22496 0.218179,0.197642 -0.07088,0.256095 -0.332095,0.40032 -0.386615,0.294313 -0.579575,0.277424 -0.696859,0.230427 -0.738465,0.15332 -2.086496,0.369431 -1.703237,0.523754 -1.705629,0.831388"
         id="path1864" /><path
         style="fill:none;stroke:#000000;stroke-width:0.28;stroke-linecap:round;stroke-linejoin:round;stroke-opacity:1"
         d="m 48.217361,16.077409 0.02522,-0.370454 0.05839,-0.161953 0.0061,-0.04184 0.06566,-0.157302 0.106088,-0.29425 0.186647,-0.237185 0.204852,-0.132033 0.214717,-0.02114 0.133386,0.106898 0.05341,0.237428 -0.02522,0.370453 -0.05466,0.151613 -0.0058,0.03886 -0.09366,0.23703 -0.08215,0.227844 -0.186646,0.237184 -0.204853,0.132034 -0.214717,0.02114 -0.133385,-0.106897 -0.05341,-0.237428"
         id="path1866" /><path
         style="fill:none;stroke:#000000;stroke-width:0.28;stroke-linecap:round;stroke-linejoin:round;stroke-opacity:1"
         d="m 37.309279,19.570014 3.119104,-1.908096 1.89413,-1.030953 1.460457,-0.411473 1.537471,-0.266534 1.256187,-0.07747 0.410643,0.04595 0.20596,0.109761 -0.0095,0.254168 -0.180054,0.442432 -0.748714,1.20064 -0.465165,0.731929 -0.418691,0.839982 -0.326334,0.844311 -0.188098,0.744914 -0.206958,0.811742 -0.370839,0.881606 -0.521076,0.923853 -0.657667,0.938479 -1.174317,1.386394 -0.443832,0.426645 -0.265855,0.162518 -1.296781,-0.600227 -2.614597,-1.368539 -2.654579,-1.452675 -1.416723,-0.852633 0.292606,-0.277458 0.898446,-0.63175 2.884745,-1.867514"
         id="path1868" /><path
         style="fill:none;stroke:#000000;stroke-width:0.28;stroke-linecap:round;stroke-linejoin:round;stroke-opacity:1"
         d="m 52.787567,18.793722 1.007877,1.791983 0.819691,1.591325 0.33837,0.848002 -0.359245,0.1929 -0.86372,0.223999 -1.798425,0.405192 -0.161937,-2.88e-4 -0.17182,-0.09319 -0.390495,-0.49357 -0.481646,-0.950651 -0.607212,-1.46472 -0.627722,-1.67385 -0.306406,-1.068987 -0.02676,-0.683279 0.211218,-0.516728 0.578933,-0.716467 a 0.679262,0.679262 0 0 1 0.858173,-0.05378 l 0.322047,0.26112 0.756148,0.951013 0.902931,1.449973"
         id="path1870" /><path
         style="fill:none;stroke:#000000;stroke-width:0.28;stroke-linecap:round;stroke-linejoin:round;stroke-opacity:1"
         d="m 49.240046,21.018751 0.833651,2.147039 0.36425,1.235392 -0.04022,0.409212 -0.116623,0.323879 -0.186991,0.236377 -0.25132,0.146703 -0.309611,0.05486 -0.361861,-0.03915 -0.856319,-0.36902 -0.684781,-0.458347 -0.583868,-0.479861 -0.481561,-0.499129 -0.377858,-0.516152 -0.272761,-0.530931 -0.166268,-0.543464 -0.05838,-0.553753 0.0509,-0.561797 0.367295,-1.137969 0.58347,-1.135022 0.602766,-0.809364 0.247094,-0.181713 0.178087,0.02072 0.606503,1.129688 0.914402,2.111804"
         id="path1872" /><path
         style="fill:none;stroke:#000000;stroke-width:0.28;stroke-linecap:round;stroke-linejoin:round;stroke-opacity:1"
         d="m 32.165223,20.732033 0.398639,-0.110537 0.398639,0.110537 0.121267,0.119652 0.04454,0.14611 -0.04454,0.146108 -0.121267,0.11965 -0.398639,0.110537 -0.398639,-0.110537 -0.121268,-0.11965 -0.04454,-0.146108 0.04454,-0.14611 0.121268,-0.119652"
         id="path1874" /><path
         style="fill:none;stroke:#000000;stroke-width:0.28;stroke-linecap:round;stroke-linejoin:round;stroke-opacity:1"
         d="m 46.311961,28.024808 -1.894564,0.01634 -0.807612,-0.09524 -0.617067,-0.171405 -0.461423,-0.227005 -0.190641,-0.238682 0.0559,-0.357664 0.278187,-0.583953 0.664379,-0.998904 0.836135,-0.938395 0.958444,-0.895305 1.192048,1.003043 1.173989,0.880136 1.148623,0.707543 0.598995,0.334517 0.262138,0.253513 -0.03742,0.25729 -0.299684,0.345845 -0.416332,0.247998 -0.66423,0.204332 -1.77986,0.255998"
         id="path1876" /><path
         style="fill:none;stroke:#000000;stroke-width:0.28;stroke-linecap:round;stroke-linejoin:round;stroke-opacity:1"
         d="m 50.437947,26.265944 a 0.376139,0.376139 0 0 1 0.642055,-0.265759 0.376003,0.376003 0 0 1 -0.265759,0.642054 l -0.265759,-0.110537 -0.110537,-0.265758"
         id="path1880" /><path
         style="fill:none;stroke:#000000;stroke-width:0.28;stroke-linecap:round;stroke-linejoin:round;stroke-opacity:1"
         d="m 52.341639,28.900017 -0.341619,-0.107506 -0.224411,-0.254553 -0.05568,-0.29965 0.164577,-0.242798 0.280267,-0.07145 0.261799,0.09884 0.19357,0.232874 0.07558,0.330662 -0.104013,0.221466 -0.250074,0.09211"
         id="path1882" /><path
         style="fill:none;stroke:#000000;stroke-width:0.28;stroke-linecap:round;stroke-linejoin:round;stroke-opacity:1"
         d="m 50.171357,18.431744 0.577103,-0.07027 0.0731,0.0057 -0.456812,0.06594 -0.258926,0.189502 -0.02035,0.281513 0.234881,0.345442 0.302589,0.155812 0.339533,-0.03837 0.308533,-0.206844 0.209592,-0.349609 -0.0025,-0.175126 -0.119546,-0.141905 -0.48234,-0.122083 -0.05462,-0.0043 0.02404,-0.0035 0.03058,0.0077 0.358441,0.02802 0.273759,0.121882 0.07345,0.217581 -0.114782,0.325097 -0.269999,0.263683 -0.414949,0.09307 -0.367655,-0.0261 -0.222553,-0.09745 -0.109806,-0.197515 -0.02941,-0.326291 0.02276,-0.217038 0.09592,-0.124646"
         id="path1884" /><path
         style="fill:none;stroke:#000000;stroke-width:0.28;stroke-linecap:round;stroke-linejoin:round;stroke-opacity:1"
         d="m 30.509528,17.839336 v 13.480627 h 9.784236"
         id="path1886" /><path
         style="fill:#000000;stroke:#000000;stroke-width:0.333643"
         d="m 190.67683,72.066834 c -0.367,-0.367007 -0.66728,-0.82114 -0.66728,-1.009186 0,-0.537964 1.68816,-1.041309 2.7271,-0.813118 1.34871,0.296226 1.20975,1.318562 -0.28626,2.105999 -0.95472,0.502527 -0.99355,0.496316 -1.77356,-0.283695 z"
         id="path3172"
         transform="scale(0.26458333)" /><path
         style="fill:#000000;stroke:#000000;stroke-width:0.333643"
         d="m 149.57446,117.19202 c 0.94014,-0.81094 4.95258,-8.86215 5.52868,-11.09362 0.35697,-1.38271 0.37926,-1.93135 0.0904,-2.22577 -0.43916,-0.44765 -24.90476,-13.804448 -29.36076,-16.029268 -2.93788,-1.466844 -7.13631,-2.76446 -8.94439,-2.76446 -0.92612,0 -0.94755,-0.04151 -0.94755,-1.835035 0,-1.377224 0.12021,-1.835036 0.48186,-1.835036 0.26502,0 0.88059,-0.342978 1.36793,-0.76217 0.6721,-0.578116 0.88608,-1.070753 0.88608,-2.039988 0,-1.47449 -0.62052,-2.246846 -1.86293,-2.318785 l -0.87247,-0.05052 -2.4e-4,-3.862518 -2.3e-4,-3.862518 0.92516,0.135785 c 0.79097,0.11609 1.09021,-0.09796 2.06313,-1.475766 3.31052,-4.688201 3.9485,-5.068166 9.41805,-5.609132 2.54961,-0.252169 4.56756,-0.621116 5.02024,-0.917865 0.41632,-0.272912 0.96363,-1.080254 1.21623,-1.794092 0.56795,-1.604952 2.47109,-3.997607 3.8472,-4.836743 1.32131,-0.805726 2.79294,-0.796538 5.7028,0.03561 2.65976,0.760624 4.92712,0.863245 5.43924,0.24618 0.19222,-0.231608 0.66256,-1.257853 1.0452,-2.280545 1.60776,-4.297132 5.16097,-5.242876 10.69218,-2.845896 3.52249,1.526484 5.00516,1.577055 6.547,0.223302 1.52619,-1.340016 3.38072,-1.80362 7.13833,-1.784475 2.35739,0.01201 4.05433,0.251091 6.62217,0.932994 4.15732,1.103996 5.83471,1.021767 7.59846,-0.372495 3.13694,-2.479782 4.93741,-3.794705 5.19595,-3.794705 0.15546,0 0.45554,0.37945 0.66685,0.843223 0.2886,0.633414 0.29122,2.148464 0.0105,6.08898 -0.37417,5.252833 -0.20258,7.931793 0.60467,9.44015 0.2165,0.404535 1.27967,2.084867 2.36259,3.734071 4.09486,6.236149 12.83961,25.044285 14.8512,31.941845 1.48021,5.075532 0.98035,9.155802 -1.50628,12.295432 -1.70001,2.14643 -2.909,2.54945 -7.54605,2.5155 -6.38906,-0.0468 -9.17481,-1.1791 -11.01287,-4.47634 -0.98429,-1.76571 -1.06999,-1.83006 -2.56645,-1.92731 -0.98949,-0.0643 -2.43065,0.19372 -3.9937,0.71502 -6.57261,2.19205 -7.47248,2.3537 -13.12211,2.35723 -4.68299,0.003 -5.83989,-0.1126 -9.42461,-0.94109 -3.51877,-0.81326 -4.2257,-0.88669 -5.08991,-0.52873 -1.37217,0.56838 -2.94464,2.81767 -5.20291,7.44236 l -1.90492,3.90106 h -1.32034 c -1.2929,0 -1.30627,-0.0121 -0.64344,-0.58387 z m 49.71036,-7.82393 c 0.2202,-0.2202 0.40988,-0.78322 0.42152,-1.25116 l 0.0211,-0.85079 0.30723,0.76552 c 0.44875,1.11817 2.26815,1.73681 5.1079,1.73681 3.67648,0 3.94353,-0.30283 4.23042,-4.79734 0.12501,-1.95844 0.28601,-3.60163 0.35777,-3.65153 0.0718,-0.0499 0.56335,-0.27716 1.0924,-0.50501 0.94173,-0.40558 0.95734,-0.45427 0.74387,-2.319643 -0.24005,-2.097575 -1.63858,-6.629251 -2.34331,-7.593018 -0.41778,-0.571357 -0.63615,-0.583982 -3.2308,-0.186787 -3.34926,0.512716 -8.66994,1.840187 -10.3949,2.593448 -0.74058,0.3234 -1.25116,0.777735 -1.25116,1.11332 0,0.311826 1.12604,2.904417 2.50232,5.76132 1.37628,2.8569 2.50232,5.36103 2.50232,5.56475 0,0.20372 -0.42479,0.0563 -0.94399,-0.32753 -2.55365,-1.88799 -4.97458,1.72123 -2.47393,3.68824 0.93438,0.73499 2.73614,0.87445 3.35119,0.2594 z m -20.50634,-3.27061 c 2.35583,-0.36363 4.92216,-0.94372 5.70296,-1.2891 1.79281,-0.79305 3.19261,-2.28502 3.19261,-3.40283 0,-1.07895 -0.7317,-1.725464 -4.50418,-3.979765 -3.26067,-1.94846 -5.60432,-3.64156 -9.55771,-6.904686 -1.40317,-1.158174 -2.79773,-2.10577 -3.09903,-2.10577 -0.76981,0 -6.44273,5.759358 -8.15165,8.275862 -1.68137,2.475929 -3.03925,5.282569 -3.04381,6.291349 -0.004,0.94659 1.67255,2.32956 3.43175,2.83037 3.88813,1.10686 9.99878,1.21535 16.02906,0.28457 z m -21.93022,-5.30498 c 1.26018,-0.76844 6.0873,-6.334407 8.27466,-9.541207 2.34128,-3.43244 4.04725,-7.218768 5.03594,-11.177033 1.00489,-4.023122 3.03988,-8.404922 6.48883,-13.971959 3.49321,-5.63849 3.27857,-6.713891 -1.34009,-6.713891 -5.90585,0 -13.98099,1.9149 -18.66233,4.425497 -4.694,2.517387 -15.93445,9.42645 -23.52181,14.457932 -7.23408,4.797205 -8.17425,5.510474 -8.17425,6.201444 0,0.507511 4.66845,3.330619 13.14136,7.94685 5.33795,2.908234 17.19536,8.987077 17.55377,8.999147 0.0918,0.003 0.63352,-0.27896 1.20392,-0.62678 z m 36.44173,0.10273 c 1.1111,-0.77825 0.90476,-2.756153 -0.36107,-3.461063 -0.82411,-0.458929 -1.01069,-0.458829 -1.83267,0.001 -1.91654,1.072098 -1.1581,3.832343 1.09115,3.971093 0.18855,0.0117 0.68471,-0.21832 1.10259,-0.51101 z m -4.52089,-3.920329 c 1.39586,-0.583475 1.7855,-1.086491 2.28328,-2.947614 0.36495,-1.364519 0.32486,-1.826868 -0.3605,-4.157479 -1.87919,-6.390266 -8.84852,-22.581385 -10.03583,-23.315184 -1.82522,-1.128051 -6.24617,5.098137 -7.95649,11.20542 -0.84579,3.020211 -0.88484,4.596096 -0.17325,6.992288 1.40619,4.735168 6.82513,10.073813 12.18051,12.000042 2.16353,0.778179 2.66701,0.805761 4.06228,0.222527 z m 13.05317,-7.388669 c 5.75276,-1.344254 6.6988,-1.806416 6.37903,-3.116307 -0.33582,-1.375682 -3.15223,-7.133375 -5.65813,-11.567127 -8.68225,-15.361768 -11.64403,-17.798505 -15.46935,-12.727047 -1.81428,2.40531 -2.18386,3.501099 -1.89563,5.62052 0.6654,4.892932 6.65854,19.58173 8.99129,22.03704 1.12216,1.181122 1.60788,1.165441 7.65279,-0.247079 z M 125.3756,80.463438 c 0.48094,-0.480939 0.60194,-0.90188 0.44219,-1.538373 -0.54814,-2.183949 -5.53958,-1.940451 -5.53958,0.270237 0,0.838918 0.57653,1.702402 1.33457,1.998827 0.92142,0.360311 3.09364,-0.06151 3.76282,-0.730691 z m 3.97795,-3.77032 c 1.94548,-0.416328 6.43402,-2.297325 8.27011,-3.465728 0.64445,-0.410096 4.27821,-2.641443 8.07502,-4.958549 10.57218,-6.451947 14.66071,-8.140032 23.55536,-9.725614 6.15811,-1.097759 8.1606,-1.651513 10.52026,-2.909198 2.02376,-1.078653 3.89603,-3.134912 3.89603,-4.278889 0,-0.902652 -1.51145,-1.901072 -3.99977,-2.642127 -3.49703,-1.041461 -5.3983,-0.809271 -10.2069,1.246509 -3.75421,1.605003 -3.97257,1.6113 -8.64092,0.249206 -3.31028,-0.965849 -4.47587,-1.171482 -5.58149,-0.984688 -1.93417,0.326776 -3.11143,1.607533 -3.81989,4.155733 -0.7879,2.833911 -1.22812,3.078605 -4.79991,2.667986 -6.01892,-0.691945 -9.99474,-0.289557 -9.99474,1.011554 0,0.982299 -1.50853,4.095906 -2.20579,4.552772 -0.56945,0.373114 -2.137,0.620413 -5.19783,0.820014 -6.51607,0.424924 -7.80828,1.246678 -9.10558,5.790512 -0.67246,2.355276 -0.71882,4.842477 -0.10884,5.838638 0.86207,1.407847 4.19893,2.939629 6.50892,2.987907 0.58736,0.01228 1.86354,-0.147941 2.83596,-0.356038 z M 185.0766,61.80732 c 0.89581,-0.951483 1.93016,-3.555196 1.93016,-4.858653 0,-1.093149 -0.9227,-2.231256 -1.80896,-2.231256 -1.19256,0 -2.41234,1.17806 -2.99728,2.894778 -0.6296,1.84777 -0.69393,4.150018 -0.13167,4.712277 0.6953,0.695304 2.09241,0.455089 3.00775,-0.517146 z m 7.5288,-6.010645 c 1.26791,-1.683534 1.88142,-6.943752 0.90443,-7.754584 -0.41479,-0.344245 -0.74313,-0.251704 -1.86475,0.525575 -1.84335,1.277445 -3.85494,3.619286 -4.32043,5.029739 -0.82976,2.514199 1.14172,4.242274 3.68583,3.230761 0.64226,-0.255357 1.35997,-0.719528 1.59492,-1.031491 z"
         id="path3174"
         transform="scale(0.26458333)" /><path
         style="fill:#e19e55;fill-opacity:1;stroke:#000000;stroke-width:0.333643"
         d="M 115.94086,102.09074 V 86.405587 l 1.41798,0.196167 c 3.90279,0.539924 6.28172,1.631901 21.22096,9.74086 8.32259,4.517466 15.19568,8.379566 15.27353,8.582426 0.35174,0.91662 -4.4542,10.70584 -5.44206,11.08491 -0.33252,0.1276 -1.70024,-0.99452 -4.05781,-3.32916 -3.93107,-3.89285 -6.31877,-5.58147 -7.89217,-5.58147 -3.03881,0 -2.34032,2.49635 1.96045,7.0065 1.1374,1.19277 2.34813,2.50649 2.69051,2.91938 l 0.62252,0.75069 h -12.89696 -12.89695 z"
         id="path4075"
         transform="scale(0.26458333)" /><path
         style="fill:#e19e55;fill-opacity:1;stroke:#000000;stroke-width:0.333643"
         d="m 149.22411,96.620018 c -9.8825,-5.032764 -22.27304,-11.927277 -22.27304,-12.39346 0,-0.275324 12.79667,-8.613546 20.03338,-13.053611 10.04195,-6.161213 13.02954,-7.666293 17.41722,-8.774416 5.99545,-1.514169 12.84696,-2.112045 13.16272,-1.148603 0.0649,0.198069 -0.9443,2.074809 -2.2427,4.170534 -3.40597,5.49752 -5.19443,9.370868 -6.32182,13.691497 -1.62395,6.223648 -4.05474,10.53319 -9.63415,17.080379 -2.18115,2.559494 -3.26211,3.566845 -3.82748,3.566845 -0.0825,0 -2.92384,-1.412624 -6.31413,-3.139165 z"
         id="path4077"
         transform="scale(0.26458333)" /><path
         style="fill:#e19e55;fill-opacity:1;stroke:#000000;stroke-width:0.333643"
         d="m 125.11603,75.424926 c -1.25078,-0.304501 -2.93931,-1.173607 -3.63846,-1.872753 -0.73399,-0.733988 -0.67629,-2.963558 0.13794,-5.330148 1.23146,-3.57932 2.10411,-4.054184 8.17612,-4.449179 5.15633,-0.335428 5.90537,-0.649251 6.93275,-2.904575 1.72128,-3.778581 1.59482,-3.638926 3.40558,-3.761045 0.91751,-0.06188 3.49692,0.06395 5.73201,0.279615 5.40651,0.521681 5.6535,0.407582 6.79334,-3.138328 0.54811,-1.705109 1.10768,-2.810092 1.58279,-3.125555 1.05669,-0.701616 2.8493,-0.576198 5.99993,0.419775 4.55757,1.440735 5.49129,1.443156 9.03975,0.02344 4.48653,-1.795031 6.33159,-2.280896 7.78129,-2.049079 1.88939,0.302125 4.94305,1.52202 4.94305,1.974678 0,0.650669 -1.59997,2.176328 -3.06744,2.924978 -2.30251,1.174651 -3.79507,1.591206 -9.44849,2.636957 -10.22282,1.890983 -13.68509,3.346398 -26.24474,11.032343 -8.22665,5.034338 -10.78203,6.353397 -13.86292,7.155866 -2.04566,0.532826 -2.70864,0.56129 -4.2625,0.183006 z"
         id="path4079"
         transform="scale(0.26458333)" /><path
         style="fill:#e19e55;fill-opacity:1;stroke:#000000;stroke-width:0.333643"
         d="m 185.46696,95.465298 c -2.67375,-0.905154 -4.81264,-2.335704 -7.50509,-5.019621 -2.85599,-2.846936 -3.72586,-4.310852 -4.30217,-7.24018 -0.4937,-2.50945 0.0442,-4.961441 1.97884,-9.02001 1.24217,-2.605932 3.58026,-6.122366 4.07077,-6.122366 0.90458,0 7.64025,15.596265 9.60261,22.234561 0.38741,1.310549 0.61418,2.661802 0.50393,3.002784 -0.7949,2.458486 -1.88239,2.999826 -4.34889,2.164832 z"
         id="path4081"
         transform="scale(0.26458333)" /><path
         style="fill:#e19e55;fill-opacity:1;stroke:#000000;stroke-width:0.333643"
         d="m 195.12708,88.665561 c -1.19358,-1.335925 -2.68447,-4.369757 -4.89387,-9.958554 -4.45979,-11.2813 -4.57786,-12.641018 -1.42775,-16.440928 2.17806,-2.62734 4.87579,0.128349 11.56477,11.813261 3.34023,5.835015 6.46289,12.168999 6.20503,12.586229 -0.20289,0.328282 -2.53268,0.991022 -7.32005,2.082284 -3.59086,0.818523 -3.31844,0.823953 -4.12813,-0.08229 z m -0.63902,-15.573689 c 0.88633,-0.832664 1.32152,-2.097667 1.03366,-3.004635 -0.26537,-0.836095 -1.61027,-1.35683 -3.5043,-1.35683 -2.24656,0 -3.21947,0.430918 -3.42728,1.517999 -0.22989,1.202602 0.30825,3.050322 1.01549,3.486698 0.97874,0.603902 3.97511,0.209147 4.88243,-0.643232 z"
         id="path4083"
         transform="scale(0.26458333)" /><path
         style="fill:#e19e55;fill-opacity:1;stroke:#000000;stroke-width:0.333643"
         d="m 188.79534,55.217129 c -0.36683,-0.955943 0.22412,-2.134522 1.95469,-3.898389 1.47411,-1.502473 1.75951,-1.673277 1.8717,-1.12016 0.26397,1.301426 -0.62398,4.1475 -1.51189,4.845927 -1.01292,0.796764 -2.04544,0.873772 -2.3145,0.172622 z"
         id="path4087"
         transform="scale(0.26458333)" /><path
         style="fill:#f7e1bc;fill-opacity:1;stroke:#000000;stroke-width:0.333643"
         d="m 183.00305,60.416999 c 0,-2.032883 1.95273,-5.188308 2.43015,-3.926896 0.24448,0.645944 -0.61054,3.512584 -1.26259,4.233082 -0.83479,0.922436 -1.16756,0.835169 -1.16756,-0.306186 z"
         id="path4089"
         transform="scale(0.26458333)" /><path
         style="fill:#f9d8b4;fill-opacity:1;stroke:#000000;stroke-width:0.333643"
         d="m 125.28285,75.091264 c -1.94651,-0.594249 -3.66463,-1.718831 -3.86879,-2.532297 -0.5075,-2.022022 0.92673,-6.060775 2.58005,-7.265339 0.59576,-0.434063 1.83484,-0.741246 3.83689,-0.951213 5.45873,-0.572492 7.19383,-0.906933 7.86961,-1.516865 0.36634,-0.330647 1.1755,-1.611885 1.79815,-2.847194 0.84961,-1.685614 1.34876,-2.300402 2.00051,-2.463981 0.47764,-0.11988 2.91689,-0.05811 5.42056,0.137273 6.65096,0.519025 6.69283,0.501049 8.20658,-3.522979 0.50148,-1.333077 1.18822,-2.571726 1.5261,-2.752552 0.98823,-0.528887 2.39072,-0.38727 5.5421,0.559614 4.32766,1.300321 6.13378,1.205934 10.63048,-0.555542 4.27274,-1.673746 6.03144,-1.811839 8.90774,-0.699435 2.19071,0.847254 2.21003,1.153818 0.16471,2.614983 -1.99449,1.424855 -4.58661,2.257309 -11.24113,3.610065 -10.01553,2.035995 -12.65312,3.154014 -25.49604,10.807209 -9.10154,5.423685 -10.30121,6.052546 -13.32507,6.984971 -2.40661,0.742089 -3.18861,0.809645 -4.55245,0.393282 z"
         id="path6023"
         transform="scale(0.26458333)" /><path
         style="fill:#e19e55;fill-opacity:1;stroke:#000000;stroke-width:0.0294901"
         d="m 204.24865,109.56689 c -1.78528,-0.1106 -3.00949,-0.46827 -3.64319,-1.06441 -0.25254,-0.23756 -0.34918,-0.39951 -0.55929,-0.93723 -0.0697,-0.17841 -0.13688,-0.33585 -0.14925,-0.34987 -0.0126,-0.0143 -0.0947,-0.013 -0.18668,0.003 -0.18922,0.0326 -0.16326,0.0676 -0.25355,-0.34211 -0.074,-0.33584 -0.0685,-0.32532 -0.34055,-0.65218 -0.12097,-0.14535 -0.21995,-0.27067 -0.21995,-0.27849 0,-0.008 0.0548,0.005 0.12167,0.0287 0.14407,0.0508 0.30133,0.0553 0.3841,0.0111 0.0941,-0.0504 0.14387,-0.20185 0.11236,-0.34207 -0.0778,-0.34609 -0.96922,-2.32854 -2.35806,-5.24394 -1.12601,-2.363661 -1.68466,-3.589647 -2.19819,-4.824029 -0.34411,-0.827163 -0.44097,-1.114151 -0.41388,-1.226273 0.0302,-0.124844 0.43806,-0.504224 0.70386,-0.654669 0.35132,-0.198849 0.70892,-0.343282 1.51011,-0.609928 2.62422,-0.873372 6.96558,-1.867896 10.08562,-2.310427 1.62444,-0.230402 1.89049,-0.208075 2.18486,0.183348 0.64312,0.855176 1.8701,4.645215 2.28143,7.047124 0.14179,0.82801 0.21503,1.878439 0.14784,2.120374 -0.0505,0.18187 -0.23194,0.30971 -0.78386,0.55232 -0.85875,0.37748 -1.07112,0.4921 -1.1175,0.60309 -0.0926,0.22164 -0.23891,1.72941 -0.38382,3.95545 -0.0707,1.08583 -0.15992,1.90146 -0.26455,2.4182 -0.2651,1.30922 -0.70073,1.71318 -2.02016,1.8733 -0.26789,0.0325 -2.27001,0.0628 -2.63937,0.0399 z"
         id="path10944"
         transform="scale(0.26458333)" /><path
         style="fill:#000000;fill-opacity:1;stroke:#000000;stroke-width:0.0294901"
         d="m 142.86494,116.93835 c -0.46226,-0.49719 -1.86651,-1.98675 -3.12057,-3.31015 l -2.28011,-2.40617 -0.70387,-0.98933 -0.70387,-0.98933 -0.10144,-0.40259 -0.10145,-0.40258 0.11366,-0.0752 c 0.10171,-0.0673 0.14296,-0.0752 0.3925,-0.0752 0.26576,0 0.30142,0.008 0.76,0.173 l 0.48116,0.17299 1.32706,0.87962 1.32706,0.87961 1.48925,1.45866 c 0.98663,0.96637 1.89731,1.89453 2.69834,2.75014 l 1.2091,1.29148 0.82572,0.65388 c 0.45415,0.35963 0.86554,0.67067 0.9142,0.6912 0.0487,0.0205 0.36529,0.0868 0.70362,0.14728 0.58049,0.10377 0.74323,0.11416 0.88659,0.0566 0.0479,-0.0192 0.0529,-0.0139 0.0324,0.034 -0.0435,0.10122 -0.0513,0.24024 -0.0172,0.30404 l 0.0334,0.0623 -2.66253,-1.3e-4 -2.66252,-1.2e-4 z"
         id="path11062"
         transform="scale(0.26458333)" /><path
         style="fill:#98929f;fill-opacity:1;stroke:#000000;stroke-width:0.333643"
         d="m 202.11083,109.06329 c -1.15646,-0.33413 -2.82798,-2.39767 -2.54323,-3.13971 0.0906,-0.23603 -0.69308,-2.2826 -1.74146,-4.54793 -3.37508,-7.292892 -3.24177,-6.876947 -2.38307,-7.435339 1.03948,-0.67595 5.80941,-2.000127 9.71602,-2.697261 3.21366,-0.573479 3.31791,-0.57246 3.76339,0.03677 0.59128,0.808622 1.95829,5.189936 2.24973,7.210442 0.21491,1.489958 0.17819,1.591778 -0.74654,2.069978 -1.03164,0.53348 -1.38536,1.64033 -1.39667,4.37041 -0.009,2.20957 -0.60712,3.82984 -1.545,4.18642 -1.03282,0.39268 -3.92824,0.3637 -5.37317,-0.0538 z"
         id="path12306"
         transform="scale(0.26458333)" /><path
         style="fill:#e19e55;fill-opacity:1;stroke:#000000;stroke-width:0.0104263"
         d="m 183.30428,61.166903 c -0.0833,-0.05894 -0.13805,-0.419423 -0.12606,-0.829696 0.0155,-0.530087 0.16089,-1.171413 0.41245,-1.819396 l 0.0607,-0.156395 0.68458,-0.0027 c 0.37652,-0.0015 0.68458,0 0.68458,0.0033 0,0.0033 -0.0191,0.07017 -0.0424,0.14865 -0.24574,0.826038 -0.57432,1.599899 -0.83467,1.965818 -0.0361,0.0508 -0.1175,0.147767 -0.18078,0.215491 -0.31137,0.333203 -0.58239,0.528708 -0.65837,0.474932 z"
         id="path12377"
         transform="scale(0.26458333)" /></g></g></svg>
