<?xml version="1.0" encoding="UTF-8" standalone="no"?>
<!-- Created with Inkscape (http://www.inkscape.org/) -->

<svg
   version="1.1"
   id="svg66"
   width="206.66667"
   height="157.33333"
   viewBox="0 0 206.66667 157.33333"
   xmlns="http://www.w3.org/2000/svg"
   xmlns:svg="http://www.w3.org/2000/svg">
  <defs
     id="defs70" />
  <g
     id="g72">
    <path
       style="fill:#000000;stroke-width:1.33333"
       d="m 21.197678,134.96313 c 5.78792,-6.57543 9.09637,-17.13685 7.43805,-23.74414 -0.9461,-3.76954 1.24309,-4.92494 2.60532,-1.37502 1.34908,3.51565 0.91882,9.0382 -1.28139,16.44712 -1.14989,3.87211 -1.80552,7.32537 -1.45696,7.67395 0.34857,0.34856 4.13939,2.07513 8.42405,3.83684 7.17162,2.9487 7.44193,3.20558 3.40383,3.23472 -2.41255,0.0175 -6.62112,-1.10839 -9.35239,-2.50178 -4.87888,-2.48902 -5.02078,-2.48902 -8.09459,0 -6.11454,4.95124 -7.18741,2.67832 -1.68592,-3.57169 z m 44.62077,-2.89488 c 0.45183,-4.95 1.21736,-11.25 1.70117,-14 l 0.87966,-5 -5.84112,-0.007 c -8.68526,-0.011 -15.36834,-2.30422 -18.56727,-6.37101 -2.45074,-3.11562 -2.78426,-5.01319 -2.39398,-13.620736 l 0.45346,-10.00081 -8.44908,-1.20196 c -5.42116,-0.77165 -11.15513,-0.70514 -16,0.18516 -8.1556696,1.4987 -9.6240896,1.22004 -7.05697,-1.33919 1.15316,-1.14962 6.44266,-1.57082 17.57831,-1.39975 14.78274,0.22709 16.03315,0.0497 17.37923,-2.46548 1.12893,-2.10943 2.45878,-2.59245 5.99947,-2.17909 l 4.54904,0.53107 0.002,-7.39893 c 0.003,-8.95696 5.3553,-31.86955 8.60187,-36.82444 1.29004,-1.96886 4.072,-4.23141 6.18213,-5.02789 3.72832,-1.40728 3.81314,-1.64775 3.00545,-8.51995 -0.90753,-7.7215897 1.05829,-11.4616097 7.27363,-13.8382997 7.58822,-2.90166003 21.462362,4.93987 19.528732,11.0374497 -0.46074,1.4529 0.2395,2.52583 2.01655,3.08984 1.49736,0.47523 2.72244,1.46406 2.72244,2.19739 0,0.73333 -1.14465,0.97004 -2.54367,0.52601 -1.88071,-0.59692 -3.033049,0.16155 -4.42138,2.91015 -4.071736,8.06116 -5.666382,9.71747 -9.355682,9.71747 -2.0236,0 -3.67927,0.37727 -3.67927,0.83838 0,2.37908 7.4323,22.636 8.618095,23.48882 0.760045,0.54662 4.660387,2.23627 8.667427,3.75478 l 7.28553,2.76092 2.49235,-3.42145 c 1.94235,-2.66642 3.64475,-3.42145 7.71448,-3.42145 3.48555,0 5.22212,-0.59636 5.22212,-1.79335 0,-0.98634 1.20634,-2.88506 2.68074,-4.21939 2.24228,-2.02923 3.42453,-2.19776 7.22821,-1.03038 4.20661,1.29105 4.60685,1.1591 5.33957,-1.7603 1.01803,-4.05617 6.00692,-5.32582 10.94122,-2.7845 3.2509,1.67433 4.06265,1.69025 5.5295,0.10851 2.02567,-2.18436 9.27291,-2.42457 14.3951,-0.47711 2.9979,1.1398 4.11784,0.91029 6.50606,-1.33334 5.05242,-4.74649 6.51531,-3.57704 5.57143,4.45388 -0.70531,6.00105 -0.39971,7.72628 1.88252,10.62766 4.25764,5.41272 14.80527,28.57081 15.55343,34.14869 0.46192,3.44393 -0.0512,6.13306 -1.63018,8.542826 -1.96172,2.99397 -3.25844,3.5168 -8.72237,3.5168 -6.18328,0 -9.64293,-1.7698 -10.91405,-5.583136 -0.40646,-1.21935 -2.14968,-1.01738 -6.90991,0.800566 -6.20744,2.37064 -14.17768,2.40099 -21.69519,0.0826 -2.49865,-0.770576 -3.40642,0.0809 -6.41402,6.0161 -2.43467,4.80457 -3.2565,8.03809 -2.69395,10.59938 0.44523,2.02711 -0.0361,6.14014 -1.06969,9.14006 l -1.87919,5.45441 7.47663,4.745 c 5.10808,3.24183 6.61056,4.74502 4.74276,4.74502 -1.50363,0 -4.767,-1.5 -7.25195,-3.33334 -2.48495,-1.83333 -5.15764,-3.33333 -5.93933,-3.33333 -0.78169,0 -3.03894,1.5 -5.0161,3.33333 -1.97717,1.83334 -4.13949,3.33334 -4.80515,3.33334 -1.1209,-1e-5 -2.90609,-9.12394 -2.90609,-14.85277 0,-4.80516 2.39188,-2.40868 3.52243,3.52919 l 1.14424,6.00977 3.61505,-3.12055 c 4.4583,-3.84844 6.74663,-9.55028 5.71602,-14.2426 -0.42848,-1.95085 -3.45326,-6.17155 -6.72173,-9.37931 -3.26847,-3.20776 -5.94267,-6.30737 -5.94267,-6.88802 0,-2.589366 4.08637,-0.64272 7.99449,3.80839 3.41168,3.88569 4.53031,4.48914 5.56118,3 1.80395,-2.60591 5.35351,-10.751126 4.85577,-11.142556 -0.2263,-0.17795 -4.91144,-2.71309 -10.41144,-5.63363 -5.5,-2.92054 -12.7,-6.84979 -16,-8.73167 -7.55052,-4.30581 -15.4154,-3.85245 -14.07751,0.81147 4.93677,17.209786 -1.11435,35.403986 -12.534462,37.687996 -4.62014,0.92403 -4.83247,1.93791 -2.05471,9.81095 2.22533,6.30724 2.53114,9.33333 0.94321,9.33333 -0.58124,0 -1.73893,-2.55 -2.57266,-5.66667 -2.1372,-7.9894 -4.33335,-13.48164 -5.08875,-12.72624 -0.35398,0.35399 0.17136,2.9872 1.16743,5.85159 0.99607,2.86439 2.22865,6.91671 2.73906,9.00515 1.43374,5.86638 -2.03332,3.7356 -3.7566,-2.30874 -0.78743,-2.76186 -2.00077,-5.03856 -2.69632,-5.0593 -0.69555,-0.0208 -2.49555,2.40752 -4,5.39613 -2.81745,5.59691 -4.73537,7.01775 -4.73537,3.50808 0,-1.1 -0.6,-2 -1.33333,-2 -0.73333,0 -1.33333,0.9 -1.33333,2 0,1.1 -0.98703,2 -2.19339,2 -1.90012,0 -2.08354,-1.20329 -1.37187,-9 z m 10.88186,-4.30684 c 1.84253,-2.91876 3.35006,-5.77353 3.35006,-6.34393 0,-0.57042 1.45728,-3.7746 3.2384,-7.12043 l 3.2384,-6.08333 -3.7194,-3.51051 -3.7194,-3.51052 -1.56892,3.44342 c -0.86291,1.89387 -1.24646,3.76587 -0.85234,4.16 0.39413,0.39412 0.71659,-0.11692 0.71659,-1.13565 0,-1.09582 0.85745,-0.62804 2.09966,1.14546 1.15482,1.64873 1.80219,3.73223 1.4386,4.63001 -0.37846,0.9345 -0.70607,0.63482 -0.76633,-0.70101 -0.12887,-2.85665 -1.31823,-2.93595 -5.03099,-0.33543 -2.68391,1.87988 -5.74094,11.50088 -5.74094,18.06772 0,4.32096 3.75818,2.93112 7.31661,-2.7058 z m -3.87201,-0.884 c -0.46239,-1.20496 -0.52658,-2.50496 -0.14265,-2.88888 0.38393,-0.38393 0.69805,0.0373 0.69805,0.93619 0,0.89884 0.59313,1.26766 1.31806,0.81964 0.75582,-0.46712 0.97934,0.0681 0.52402,1.25464 -1.00255,2.6126 -1.35513,2.59472 -2.39748,-0.1216 z m 1.88873,-10.98511 c 0,-0.73334 0.6,-1.70416 1.33334,-2.15738 0.73333,-0.45323 1.33333,-0.22405 1.33333,0.50929 0,0.73333 -0.6,1.70415 -1.33333,2.15737 -0.73334,0.45323 -1.33334,0.22405 -1.33334,-0.50928 z m 19.10571,1.2625 c 4.616344,-1.75514 7.726792,-8.62252 8.528902,-18.830476 0.51689,-6.57819 0.20788,-9.2231 -1.24758,-10.67857 -1.06406,-1.06405 -1.694847,-2.65404 -1.401756,-3.53331 0.364156,-1.09247 -0.754499,-0.95644 -3.532872,0.4296 l -4.065764,2.02826 2.75163,2.91564 c 2.11936,2.24569 2.599295,4.08433 2.088675,8.00175 -0.472285,3.623306 -0.120907,5.294096 1.221719,5.809306 1.03657,0.39777 1.865588,1.10903 1.842268,1.58057 -0.102132,2.06492 -3.570883,5.20629 -6.629382,6.00369 -3.19183,0.83215 -3.20846,0.80586 -0.406,-0.64169 3.83417,-1.98046 4.80107,-4.73638 2.034238,-5.79811 -1.214678,-0.46612 -1.826078,-0.46506 -1.358678,0.002 0.467402,0.4674 -0.15089,2.01857 -1.37398,3.44703 -1.22308,1.4284 -1.92379,2.78548 -1.55713,3.01566 0.36667,0.23018 -0.1568,1.41073 -1.16326,2.62344 -2.08321,2.51012 -0.20056,3.03542 2.21643,0.61842 2.291072,-2.29106 5.56906,-2.51578 4.728042,-0.32412 -0.385454,1.00447 -1.09391,1.75003 -1.57435,1.65679 -0.480438,-0.0932 -1.773522,0.1782 -2.873522,0.60319 -1.1,0.42499 -2.9,1.07287 -4,1.43974 -1.60686,0.53593 -1.5584,0.68773 0.24653,0.77231 1.2356,0.0579 3.72222,-0.45579 5.52584,-1.14152 z m -30.43904,-9.41988 c -0.45322,-0.73334 -1.53863,-1.32415 -2.41202,-1.31292 -0.95416,0.0123 -0.7897,0.5363 0.41202,1.31292 2.5615,1.65536 3.02307,1.65536 2,0 z m -12.92417,-4.70195 c -0.41052,-0.41052 -1.15606,0.32948 -1.65677,1.64444 -0.72358,1.90027 -0.57043,2.05342 0.74639,0.7464 0.91122,-0.90445 1.3209,-1.98032 0.91038,-2.39084 z m 41.60177,-2.64907 2.895087,-4.684346 -7.737077,-10.74586 c -4.25539,-5.91021 -8.35924,-11.15226 -9.11967,-11.64898 -0.76044,-0.49672 -5.43261,-1.53816 -10.38261,-2.31432 l -9,-1.41121 v 3.48802 c 0,2.67156 3.38645,6.8251 14.46741,17.74453 7.95708,7.84109 14.80814,14.256516 15.22459,14.256516 0.41645,0 2.05997,-2.10796 3.65227,-4.68435 z m -45.79456,-0.982316 c -0.36988,-0.91666 -0.67251,-0.16666 -0.67251,1.666666 0,1.83333 0.30263,2.58333 0.67251,1.66667 0.36988,-0.91667 0.36988,-2.41667 0,-3.333336 z m 140.450302,1.888886 c 0,-1.736096 -1.58503,-2.890706 -2.87439,-2.093836 -1.37896,0.852236 -0.18993,3.204946 1.61975,3.204946 0.69005,0 1.25464,-0.5 1.25464,-1.11111 z m 8.86326,-3.222216 c -0.1216,-2.68054 0.39984,-4.21928 1.36716,-4.0343 1.12743,0.21559 1.23191,-0.85803 0.37447,-3.84775 -0.65411,-2.28073 -1.43481,-4.39231 -1.73491,-4.6924 -0.62697,-0.62698 -12.86998,2.29432 -12.86998,3.0709 0,0.28227 1.2,2.75216 2.66666,5.48864 1.46667,2.73648 2.66667,5.73431 2.66667,6.661826 0,0.97164 1.63741,1.68641 3.86327,1.68641 3.50998,0 3.84528,-0.39625 3.66666,-4.333326 z M 75.269418,97.087304 c -0.8635,-0.86349 -1.31429,-0.4127 -1.31429,1.31428 0,1.726986 0.45079,2.177776 1.31429,1.31429 0.86349,-0.86349 0.86349,-1.76508 0,-2.62857 z m 98.963342,-0.29668 c 1.97661,-1.97661 1.82757,-2.31541 -1.85679,-4.22066 -2.20325,-1.13935 -5.90663,-3.67088 -8.22972,-5.62563 l -4.22379,-3.55409 -3.39606,3.17234 c -1.86784,1.74479 -4.26039,4.83378 -5.31678,6.86444 -1.80118,3.46236 -1.73108,3.77264 1.1267,4.98651 4.70018,1.996456 19.36392,0.90962 21.89644,-1.62291 z M 72.050368,95.231514 c 0,-0.27687 -1.05,-1.32687 -2.33334,-2.33333 -2.11474,-1.6585 -2.1619,-1.61134 -0.5034,0.5034 1.74182,2.221 2.83674,2.92731 2.83674,1.82993 z m 80.666672,-7.90586 c 3.40826,-4.42482 5.65481,-8.97239 6.22396,-12.59886 0.48985,-3.12114 2.7194,-8.16153 4.95456,-11.20087 2.23514,-3.03933 3.73116,-6.06446 3.32446,-6.7225 -0.83801,-1.35595 -11.10482,-0.0917 -17.25844,2.12516 -3.75684,1.35342 -32.87721,19.6662 -32.20521,20.25272 1.75677,1.53332 27.28384,15.20099 28.28507,15.14435 0.73824,-0.0418 3.74226,-3.19176 6.6756,-7 z m 28.66666,5.7426 c 0,-0.73333 -0.6,-1.33333 -1.33333,-1.33333 -0.73333,0 -1.33333,0.6 -1.33333,1.33333 0,0.73333 0.6,1.33333 1.33333,1.33333 0.73333,0 1.33333,-0.6 1.33333,-1.33333 z m -2.66666,-6.60742 c 0,-2.19185 -8.10756,-21.94458 -9.63356,-23.47058 -1.27919,-1.27918 -6.09663,6.61719 -7.01118,11.49218 -1.00165,5.33924 2.17979,10.45932 9.12251,14.68145 4.40617,2.67955 7.52223,1.55983 7.52223,-2.70305 z M 60.717028,83.002914 c -5.06789,-4.40135 -10.70084,-7.01159 -12.10372,-5.60871 -1.07502,1.07502 3.95907,8.89702 6.10372,9.484 1.1,0.30106 4.1,0.59445 6.66667,0.65199 l 4.66667,0.10461 -5.33334,-4.63188 z m 129.666672,0.059 c 2.38334,-0.47969 4.33334,-1.14443 4.33334,-1.4772 0,-1.39583 -7.31766,-14.94274 -10.87394,-20.13052 -4.01674,-5.8595 -6.01206,-6.21004 -8.91248,-1.56574 -1.49441,2.39294 -1.13394,4.28881 2.65631,13.9707 3.21952,8.22401 4.92743,11.05222 6.4244,10.63848 1.12147,-0.30997 3.98904,-0.95604 6.37237,-1.43572 z m -12.08333,-14.85477 c -1.7388,-1.7388 -0.90865,-3.13889 1.86111,-3.13889 1.55166,0 2.54481,0.69889 2.25,1.58334 -0.64948,1.94845 -2.87582,2.79085 -4.11111,1.55555 z m -79.583338,10.4756 c 0.366666,-0.36096 -1.133334,-0.22943 -3.333334,0.29229 -2.2,0.52173 -4.5863,1.52244 -5.3029,2.2238 -0.71659,0.70137 0.78341,0.56984 3.33334,-0.29229 2.549923,-0.86213 4.936227,-1.86284 5.302894,-2.2238 z m -7.333334,-1.61449 c 0.45323,-0.73333 0.0386,-1.34152 -0.92131,-1.35154 -0.95995,-0.01 -3.24536,-0.41406 -5.07869,-0.89788 -2.9929,-0.78984 -3.14644,-0.65181 -1.50341,1.35154 2.02507,2.46915 6.22193,2.97136 7.50341,0.89788 z m 13.636192,-3.91389 c -0.39016,-1.49196 0.1067,-2.88046 1.17782,-3.29148 2.51255,-0.96416 2.35943,-4.79463 -0.19167,-4.79463 -2.53844,0 -14.799422,-6.12915 -15.934292,-7.9654 -0.4587,-0.74219 -1.64563,-4.2036 -2.63762,-7.69202 -4.32035,-15.19287 -8.63253,-23.00924 -12.69387,-23.00924 -3.86881,0 -9.17002,6.48746 -11.44006,14 -2.30329,7.62258 -5.34615,25.68145 -4.47417,26.55344 1.3525,1.3525 19.31001,3.07836 20.491,1.96935 1.9293,-1.8117 3.40455,-1.4194 2.59506,0.69008 -0.76407,1.99115 0.83669,2.72647 9.13828,4.19776 7.251936,1.28525 6.159257,-1.10611 -2.0625,-4.51384 -6.23316,-2.5835 -7.51131,-3.81361 -10.8845,-10.47544 -2.27815,-4.49919 -4.00676,-10.28282 -4.27941,-14.31811 l -0.4574,-6.76991 2.47885,8.30431 c 4.36403,14.6198 12.76468,23.36236 22.448669,23.36236 3.787723,0 5.409353,2.0385 2.507463,3.15206 -3.282843,1.25975 -2.434611,3.18127 1.40433,3.18127 2.7936,0 3.35437,-0.51425 2.81402,-2.58056 z m 5.69714,0.46945 c 0,-2.35457 -2.87034,-1.94452 -3.69444,0.52778 -0.29028,0.87083 0.42222,1.58333 1.58333,1.58333 1.16111,0 2.11111,-0.95 2.11111,-2.11111 z m 6.66667,0.77778 c 0,-0.73334 -0.9,-1.33334 -2,-1.33334 -1.1,0 -2,0.6 -2,1.33334 0,0.73333 0.9,1.33333 2,1.33333 1.1,0 2,-0.6 2,-1.33333 z m 17.36249,-10.03003 c 11.41534,-7.43577 15.52015,-9.06758 26.89027,-10.68981 3.46792,-0.49479 7.25776,-2.00264 8.5093,-3.38557 2.14214,-2.36704 2.07921,-2.56088 -1.24118,-3.82329 -3.51114,-1.33493 -5.67929,-1.02836 -11.12061,1.57242 -2.12444,1.01542 -4.04769,0.94022 -6.97605,-0.27275 -5.01584,-2.07762 -7.75231,-1.13021 -8.3208,2.88083 -0.34217,2.41422 -1.15859,2.99675 -3.77008,2.69001 -9.41022,-1.10527 -9.82589,-1.01196 -10.65284,2.39152 -0.701,2.88507 -1.56069,3.33973 -6.39281,3.38094 -6.22978,0.0531 -7.56096,0.99437 -8.7899,6.21517 -0.62137,2.63967 -0.22388,3.9587 1.49452,4.95945 4.61824,2.68953 9.19705,1.35908 20.37018,-5.91892 z m 39.74971,-9.88959 c 0.30272,-2.06834 -0.12466,-2.85615 -1.33333,-2.45779 -0.97837,0.32245 -1.97936,1.95611 -2.2244,3.63035 -0.30272,2.06835 0.12467,2.85615 1.33333,2.45779 0.97838,-0.32245 1.97936,-1.95611 2.2244,-3.63035 z m 6.07848,-3.52277 c 0.44514,-1.15998 0.80932,-3.05297 0.80932,-4.20665 0,-1.80267 -0.37493,-1.75829 -2.66666,0.3157 -1.46667,1.32732 -2.66667,3.22031 -2.66667,4.20665 0,2.4985 3.53887,2.25155 4.52401,-0.3157 z M 89.914338,30.935954 c 1.14513,-0.43943 3.38086,-2.90046 4.968282,-5.46896 2.388412,-3.86453 2.565542,-4.87305 1.026981,-5.84728 -2.881143,-1.82437 -6.159003,-1.43076 -7.032073,0.84442 -0.43531,1.1344 -1.5495,1.91678 -2.47598,1.7386 -0.92649,-0.17817 -3.09089,0.15201 -4.80979,0.73374 l -3.12528,1.05767 3.70806,3.87039 c 3.93998,4.11245 4.47433,4.3245 7.7398,3.07142 z m -5.39566,-13.7325 c 1.55716,-1.34129 4.60313,-2.04352 8.25153,-1.90232 5.407188,0.20927 5.714472,0.0356 4.725896,-2.67119 C 95.568841,7.3529843 85.892758,4.6081743 80.116078,7.6997543 c -4.76985,2.5527497 -5.0774,14.1102897 -0.33079,12.4311297 1.24579,-0.44071 3.37582,-1.75805 4.73339,-2.92743 z M 103.80519,137.72928 c -1.57417,-3.45494 -0.59308,-6.09586 1.45087,-3.90547 0.63869,0.68444 1.56912,2.59444 2.06763,4.24444 1.25333,4.14839 -1.59913,3.87357 -3.5185,-0.33897 z"
       id="path184" />
    <path
       style="fill:#d9a150;fill-opacity:1;stroke-width:0.62558"
       d="m 132.10291,86.799874 c -7.16738,-3.87114 -13.05532,-7.3194 -13.08432,-7.66279 -0.12773,-1.51276 28.67694,-19.2394 33.53281,-20.63639 4.24275,-1.22059 11.96981,-2.28168 13.1942,-1.81184 1.44334,0.55386 1.22579,1.32522 -1.59469,5.65425 -2.82086,4.32963 -5.52838,10.41911 -5.55157,12.48603 -0.0404,3.60249 -9.88149,18.3784 -12.5537,18.8488 -0.50112,0.0882 -6.77534,-3.00691 -13.94273,-6.87806 z"
       id="path255" />
    <path
       style="fill:#d9a150;fill-opacity:1;stroke-width:0.62558"
       d="m 137.00198,88.940054 c -10.29809,-5.37758 -17.20344,-9.40628 -17.20344,-10.03678 0,-0.97173 21.46298,-14.51169 29.29233,-18.47912 5.08585,-2.5772 17.00058,-4.51811 17.00058,-2.7694 0,0.39985 -1.24619,2.86307 -2.76931,5.47383 -2.78384,4.77173 -4.01221,7.62512 -5.27517,12.25379 -1.39611,5.11663 -10.10482,17.8518 -12.18364,17.81672 -0.40084,-0.007 -4.38845,-1.92333 -8.86135,-4.25904 z"
       id="path1085" />
    <path
       style="fill:#d9a150;fill-opacity:1;stroke-width:0.62558"
       d="m 169.33588,87.304804 c -4.34126,-3.19585 -6.99791,-7.20599 -6.99791,-10.56313 0,-1.25634 0.54962,-3.73073 1.22137,-5.49866 1.25931,-3.31422 4.22627,-8.05945 5.03918,-8.05945 0.71977,0 7.31548,15.29289 9.15198,21.21986 0.74546,2.40583 0.7327,2.95468 -0.0981,4.22266 -1.49191,2.27694 -3.96171,1.88455 -8.31652,-1.32128 z"
       id="path1087" />
    <path
       style="fill:#d9a150;fill-opacity:1;stroke-width:0.62558"
       d="m 182.0865,82.346214 c -2.01617,-2.68332 -7.37785,-16.46721 -7.45666,-19.16966 -0.064,-2.19615 1.60493,-5.24226 3.23655,-5.90717 1.55255,-0.63269 3.3245,0.99769 6.64697,6.11591 3.81222,5.87267 10.11972,17.75807 9.66526,18.21253 -0.16829,0.16829 -2.62664,0.84634 -5.46301,1.50679 l -5.15703,1.20081 z m 0.27694,-14.79652 c 0.96787,-1.80848 0.27143,-2.48939 -2.54616,-2.48939 -2.16574,0 -2.4654,0.17741 -2.4654,1.45968 0,1.89095 0.45392,2.2938 2.58458,2.2938 1.11618,0 1.9956,-0.45805 2.42698,-1.26409 z"
       id="path1089" />
    <path
       style="fill:#d9a150;fill-opacity:1;stroke-width:0.62558"
       d="m 188.50614,100.24916 c -0.38772,-0.946186 -1.69368,-3.903766 -2.90214,-6.572396 -1.20846,-2.66864 -2.02202,-5.02725 -1.80791,-5.24137 0.4081,-0.40809 9.60603,-2.71763 10.85683,-2.72608 0.74565,-0.005 2.71752,5.01693 2.71752,6.92101 0,0.59004 -0.42227,1.23483 -0.93837,1.43288 -0.63957,0.24542 -0.93837,1.24646 -0.93837,3.14366 0,4.261636 -0.37039,4.762646 -3.52103,4.762646 -2.4247,0 -2.84759,-0.20987 -3.46653,-1.72035 z"
       id="path1091" />
    <path
       style="fill:#d9a150;fill-opacity:1;stroke:#000000;stroke-width:0.62558;stroke-opacity:1"
       d="m 92.285638,139.03511 c 0.007,-0.60212 -0.89197,-4.00333 -1.99758,-7.55824 -1.38058,-4.43901 -1.8254,-6.75524 -1.42017,-7.39498 0.32451,-0.51233 2.04475,-1.42342 3.82274,-2.02465 6.097067,-2.06174 9.260102,-5.57984 12.199652,-13.56913 1.13429,-3.08282 1.36609,-5.06642 1.38315,-11.836026 0.0116,-4.61173 -0.30884,-9.25457 -0.74023,-10.72426 -0.9729,-3.3146 -0.49735,-4.47552 2.02732,-4.94915 3.43877,-0.64512 7.01154,0.79213 22.37546,9.00118 12.89849,6.89175 14.78439,8.08629 14.48441,9.17455 -0.64837,2.352106 -3.40915,8.097016 -4.43683,9.232586 -0.97801,1.08069 -1.20456,0.95981 -4.81902,-2.57107 -3.89901,-3.80885 -5.79639,-5.09757 -7.50513,-5.09757 -2.11363,0 -0.76331,2.61567 4.08589,7.9147 5.75975,6.29405 7.44621,9.14362 7.44621,12.58168 0,3.27881 -2.6973,8.4398 -5.79804,11.09392 -2.9954,2.56395 -3.58301,2.69208 -3.59308,0.78346 -0.022,-4.16953 -2.93264,-10.87483 -4.17937,-9.62809 -0.70757,0.70756 -0.27915,9.02449 0.67319,13.06877 l 0.84703,3.59709 h -9.46204 -9.46205 l -0.82703,-2.65872 c -0.91328,-2.93598 -2.34931,-4.84824 -3.64082,-4.84824 -1.13162,0 -1.0923,3.57054 0.0637,5.78661 l 0.89741,1.72035 h -6.218697 c -5.510325,0 -6.217265,-0.12471 -6.206085,-1.09477 z"
       id="path2269" />
    <path
       style="fill:#d9a150;fill-opacity:1;stroke:#000000;stroke-width:0.62558;stroke-opacity:1"
       d="M 11.573228,111.75768 V 83.385474 l 4.34317,-0.71726 c 5.52374,-0.91222 14.89305,-0.91906 20.96957,-0.0153 l 4.71971,0.70197 -0.15871,9.7765 c -0.17893,11.022866 0.14626,12.198236 4.32867,15.645736 3.51168,2.89463 7.16263,3.93134 15.11646,4.29244 l 7.09224,0.32198 -0.35193,1.95233 c -0.97949,5.43377 -2.25932,17.1889 -2.25932,20.75177 v 4.03423 h -11.09983 -11.09983 l -7.26137,-3.17934 -7.26137,-3.17933 0.46146,-2.29449 c 0.2538,-1.26197 1.05432,-4.68733 1.77895,-7.61192 2.01735,-8.14204 1.6365,-15.0796 -0.88086,-16.0456 -1.58047,-0.60648 -1.80151,0.16442 -1.6288,5.68068 0.25536,8.1565 -1.77611,13.69426 -8.11772,22.12867 -3.25337,4.32702 -3.46741,4.48648 -6.03178,4.49377 l -2.65871,0.008 z"
       id="path2271" />
    <path
       style="fill:#d9a150;fill-opacity:1;stroke:#000000;stroke-width:0.62558;stroke-opacity:1"
       d="m 133.59348,137.91346 c 4.41665,-3.69001 4.34849,-3.68557 9.12054,-0.59417 l 4.29724,2.78382 -8.03533,0.0134 -8.03533,0.0134 z"
       id="path2273" />
    <path
       style="fill:#edd6b1;fill-opacity:1;stroke:#000000;stroke-width:0.62558;stroke-opacity:1"
       d="m 135.12524,137.62756 c 1.29887,-1.03221 2.65002,-1.87674 3.00257,-1.87674 0.74462,0 6.06834,3.04163 6.06834,3.46706 0,0.15753 -2.57231,0.28642 -5.71624,0.28642 h -5.71624 z"
       id="path2275" />
    <path
       style="fill:#d9a150;fill-opacity:1;stroke:#000000;stroke-width:0.110588;stroke-opacity:1"
       d="m 176.87693,52.720424 c -0.46027,-0.28065 -0.73548,-0.82042 -0.73527,-1.44212 2.2e-4,-0.63033 0.49279,-1.64269 1.33602,-2.74582 0.93422,-1.22218 2.99597,-3.00476 3.47535,-3.00476 0.66492,0 0.31279,3.66497 -0.53326,5.55024 -0.66239,1.476 -2.45379,2.30649 -3.54284,1.64246 z"
       id="path4349" />
    <path
       style="fill:#d9a150;fill-opacity:1;stroke:#000000;stroke-width:0.110588;stroke-opacity:1"
       d="m 171.21581,57.900854 c -0.4053,-0.43504 -0.42472,-1.61199 -0.049,-2.96843 0.52791,-1.90575 2.02559,-3.37969 2.87116,-2.82565 0.41227,0.27013 0.51387,0.66333 0.44313,1.71505 -0.0701,1.0425 -0.23779,1.67404 -0.67197,2.53084 -0.73958,1.4595 -1.98392,2.20235 -2.59336,1.54819 z"
       id="path4351" />
    <path
       style="fill:#9aa0a0;fill-opacity:1;stroke:#000000;stroke-width:0.62558;stroke-opacity:1"
       d="m 77.193868,18.298214 c -0.70127,-1.82829 -0.32031,-5.77403 0.75067,-7.77518 2.67772,-5.0033597 13.91215,-4.7343697 17.974741,0.43039 2.570123,3.26738 1.987055,3.90474 -3.802651,4.15674 -4.68055,0.20372 -5.51162,0.44266 -8.92685,2.56651 -2.0712,1.28803 -4.11912,2.34188 -4.55094,2.34188 -0.43181,0 -1.08205,-0.77415 -1.44497,-1.72034 z"
       id="path8856" />
    <path
       style="fill:#9aa0a0;fill-opacity:1;stroke:#000000;stroke-width:0.62558;stroke-opacity:1"
       d="m 69.963678,131.64625 c -0.93794,-2.44424 1.78382,-14.26985 3.88075,-16.86126 0.98757,-1.22043 0.99977,-1.21686 0.69456,0.20357 -0.40833,1.90038 1.33698,2.62608 2.49779,1.03857 1.17333,-1.60462 1.06808,-2.13047 -0.54588,-2.72752 -1.35793,-0.50233 -1.34387,-0.54141 0.54626,-1.51884 2.08177,-1.07652 2.72427,-0.8664 2.72427,0.89094 0,0.61049 0.28151,1.28396 0.62558,1.49661 0.37324,0.23067 0.62558,-0.53087 0.62558,-1.88795 0,-1.69096 -0.47942,-2.75398 -1.86848,-4.14305 -1.8353,-1.8353 -1.85165,-1.90874 -0.92103,-4.13604 l 0.94745,-2.26757 3.35078,3.30916 3.35078,3.30915 -4.09012,8.53837 c -4.41931,9.22557 -6.88575,13.24902 -9.05201,14.76632 -1.73814,1.21744 -2.2959,1.21533 -2.76628,-0.0105 z m 5.52589,-4.96634 c 0.12488,-0.76001 -0.10821,-1.18749 -0.59379,-1.08896 -0.43966,0.0892 -0.96242,-0.26268 -1.1617,-0.78198 -0.19927,-0.51929 -0.6137,-0.94417 -0.92096,-0.94417 -0.75172,0 -0.70616,2.03288 0.0926,4.13389 0.56003,1.47298 0.77228,1.58826 1.51475,0.8227 0.4749,-0.48968 0.95598,-1.45334 1.06906,-2.14148 z"
       id="path8858" />
    <path
       style="fill:#9aa0a0;fill-opacity:1;stroke:#000000;stroke-width:0.62558;stroke-opacity:1"
       d="m 89.714538,113.96047 c 0.85336,-1.59451 1.94318,-2.36225 4.08021,-2.87437 2.047479,-0.49065 6.610812,-4.71669 6.610812,-6.12217 0,-0.49845 -0.703774,-1.28291 -1.563947,-1.74326 -1.472708,-0.78817 -1.563949,-1.13581 -1.563949,-5.958756 0,-4.86808 -0.106045,-5.26064 -2.141004,-7.92575 l -2.141002,-2.80398 2.842225,-1.38087 c 1.563225,-0.75947 2.878566,-1.2976 2.922979,-1.19584 0.04441,0.10176 0.854906,1.63406 1.801098,3.40511 2.00483,3.75259 2.20343,7.58725 0.80059,15.458286 -0.98121,5.50541 -4.234487,12.99405 -4.590802,10.56747 -0.272754,-1.85751 -1.861391,-1.80522 -4.752,0.1564 -2.74985,1.8661 -3.11584,1.93242 -2.30521,0.41773 z"
       id="path8860" />
    <path
       style="fill:#bbd8dc;fill-opacity:1;stroke:#000000;stroke-width:0.62558;stroke-opacity:1"
       d="m 59.054778,87.013564 c -2.27082,-0.20392 -4.64137,-0.79302 -5.26787,-1.30913 -1.45088,-1.19521 -4.67889,-6.24303 -4.67889,-7.31664 0,-1.66419 3.15544,-0.72715 7.61094,2.26013 4.86203,3.25985 8.89413,7.00239 7.36362,6.83482 -0.49446,-0.0541 -2.75697,-0.26527 -5.0278,-0.46918 z"
       id="path9002" />
    <path
       style="fill:#edc496;fill-opacity:1;stroke:none;stroke-width:0.62558;stroke-opacity:1"
       d="m 100.56196,75.251024 c -1.862973,-0.35532 -1.783999,-1.28791 0.18503,-2.18506 1.08649,-0.49504 1.53379,-1.13688 1.40756,-2.01972 -0.1559,-1.09031 -0.90973,-1.41402 -4.787176,-2.0557 -2.575597,-0.42624 -5.780506,-1.45219 -7.278146,-2.32986 -6.03393,-3.53612 -11.11704,-11.49121 -14.41356,-22.55731 -2.12333,-7.12779 -2.91076,-8.02667 -2.44208,-2.78772 0.54741,6.11903 1.32786,9.52161 3.40317,14.83702 3.04314,7.79428 5.13942,10.13204 12.06841,13.45861 7.323295,3.51586 8.238788,4.56079 3.50867,4.00473 -1.85982,-0.21864 -4.85943,-0.83647 -6.6658,-1.37295 -3.00301,-0.8919 -3.28429,-1.13409 -3.28429,-2.82794 0,-1.41667 -0.28567,-1.8525 -1.21424,-1.8525 -0.66783,0 -1.38822,0.28151 -1.60087,0.62558 -0.71777,1.16137 -12.12264,0.5852 -18.92379,-0.95603 -1.79881,-0.40763 -1.82392,-2.1149 -0.17111,-11.63093 2.61684,-15.06634 5.34093,-22.20649 10.11907,-26.52326 4.3527,-3.9324 7.2877,-2.47197 11.12539,5.53591 1.34702,2.81073 3.62946,8.91082 5.07209,13.55575 1.44263,4.64493 3.0454,8.92677 3.5617,9.5152 1.25996,1.43598 11.089302,6.45825 14.331912,7.32286 3.25122,0.8669 3.82295,2.17506 1.77864,4.06966 -1.10969,1.02844 -1.55792,2.09814 -1.55792,3.71803 0,1.2508 -0.25848,2.27419 -0.57441,2.27419 -0.31593,0 -0.94933,0.10122 -1.40756,0.22495 -0.45822,0.12372 -1.46654,0.10414 -2.24069,-0.0435 z"
       id="path16056" />
    <path
       style="fill:#edc496;fill-opacity:1;stroke:none;stroke-width:0.62558;stroke-opacity:1"
       d="m 82.682238,27.650244 -3.64777,-3.70415 2.83003,-0.71261 c 1.55651,-0.39194 3.48721,-0.71261 4.29044,-0.71261 0.83967,0 2.16038,-0.7977 3.10723,-1.87674 1.89661,-2.16142 4.07094,-2.42579 6.144124,-0.74703 l 1.395136,1.12972 -1.267969,2.46737 c -1.939021,3.77318 -5.210571,7.12962 -7.326701,7.51681 -1.65466,0.30276 -2.3084,-0.0949 -5.52452,-3.36076 z"
       id="path18611" />
    <path
       style="fill:#f2d1b3;fill-opacity:1;stroke:none;stroke-width:0.62558;stroke-opacity:1"
       d="m 99.779983,74.466014 c 0,-0.33197 0.580107,-0.91404 1.289127,-1.29349 0.82044,-0.43909 1.21846,-1.18153 1.09476,-2.04212 -0.16153,-1.12382 -1.03966,-1.57097 -5.198996,-2.6474 -6.443756,-1.66764 -8.298176,-2.69219 -11.679176,-6.45268 -3.55549,-3.95456 -6.09559,-8.78045 -8.94193,-16.98858 -2.64733,-7.63426 -3.46372,-8.85629 -3.46372,-5.18478 0,7.2915 4.07807,20.03689 7.80378,24.38955 1.26634,1.47943 4.18819,3.59704 7.03405,5.09793 7.074762,3.73118 7.345201,4.01208 3.48446,3.61922 -5.69716,-0.57973 -8.20487,-1.60783 -8.62872,-3.53758 l -0.37556,-1.70991 -6.70011,0.31757 c -3.95671,0.18754 -8.55393,0.005 -11.2276,-0.44609 l -4.52747,-0.76366 v -2.96196 c 0,-7.77079 4.45967,-25.3836 7.74507,-30.58801 2.12808,-3.3711 5.14094,-5.74851 7.285,-5.74851 3.2233,0 6.36451,5.48554 11.1842,19.53111 1.68588,4.91302 3.26523,9.42932 3.50966,10.03621 0.54321,1.34873 6.639285,4.81906 13.056492,7.4327 2.62,1.06709 4.76364,2.14901 4.76364,2.40426 0,0.25525 -0.52223,1.13546 -1.16052,1.95602 -0.63829,0.82055 -1.35482,2.54758 -1.5923,3.83784 -0.40028,2.17482 -0.5894,2.34593 -2.59295,2.34593 -1.18865,0 -2.161187,-0.27161 -2.161187,-0.60357 z"
       id="path21243" />
    <path
       style="fill:#f2d1b3;fill-opacity:1;stroke:none;stroke-width:0.62558;stroke-opacity:1"
       d="m 116.18759,69.443094 c -1.71248,-0.72196 -2.28227,-1.99858 -1.78188,-3.9923 0.79378,-3.16269 2.38658,-4.23729 7.61206,-5.13558 3.94227,-0.6777 5.26711,-1.1902 6.38249,-2.46901 0.77416,-0.88758 1.40756,-2.02036 1.40756,-2.51727 0,-0.72179 1.16373,-0.90542 5.78661,-0.91307 3.18264,-0.005 6.10068,-0.2164 6.48455,-0.46918 0.38387,-0.25279 1.31859,-1.68364 2.07715,-3.17969 1.27682,-2.51813 1.5269,-2.69475 3.36834,-2.379 6.17675,1.05914 9.0829,1.09308 12.72758,0.14865 4.34238,-1.12523 8.08516,-1.28822 8.64855,-0.37663 0.71247,1.15281 -3.54793,3.01098 -11.42831,4.98447 -8.61912,2.15848 -13.93302,4.39507 -22.78293,9.5892 -11.30359,6.63422 -15.26909,8.07226 -18.50177,6.70941 z"
       id="path22418" />
  </g>
</svg>
